<?xml version="1.0" encoding="UTF-8" standalone="no"?>
<!DOCTYPE svg PUBLIC "-//W3C//DTD SVG 1.1//EN" "http://www.w3.org/Graphics/SVG/1.1/DTD/svg11.dtd">
<svg width="100%" height="100%" viewBox="0 0 3000 3000" version="1.1" xmlns="http://www.w3.org/2000/svg" xmlns:xlink="http://www.w3.org/1999/xlink" xml:space="preserve" xmlns:serif="http://www.serif.com/" style="fill-rule:evenodd;clip-rule:evenodd;stroke-linejoin:round;stroke-miterlimit:2;">
    <g transform="matrix(1,0,0,1,-14195.8,-4189.54)">
        <g id="Logo-Bianco-SENZA-testo" serif:id="Logo Bianco SENZA testo" transform="matrix(1.45453,0,0,1,9506.16,4189.54)">
            <rect x="3224.18" y="0" width="2062.53" height="3000" style="fill:none;"/>
            <g transform="matrix(1069.19,0,0,1558.67,4465.64,2044.93)">
                <path d="M0,0.012L0.076,0.012L0.076,-0.636L0.235,-0.636C0.27,-0.636 0.305,-0.628 0.338,-0.611C0.402,-0.58 0.434,-0.525 0.434,-0.446C0.434,-0.368 0.402,-0.313 0.338,-0.281C0.305,-0.265 0.27,-0.256 0.235,-0.256L0.104,-0.256L0.177,-0.185L0.38,0.012L0.491,0.012L0.286,-0.186C0.327,-0.191 0.369,-0.208 0.411,-0.237C0.477,-0.284 0.511,-0.354 0.511,-0.446C0.511,-0.556 0.465,-0.633 0.373,-0.677C0.327,-0.7 0.281,-0.711 0.235,-0.711L0,-0.711L0,0.012Z" style="fill:white;fill-rule:nonzero;"/>
            </g>
            <g>
                <g transform="matrix(0.687508,0,0,1,3224.79,83.9865)">
                    <path d="M2748.23,490.101L2748.23,625.789L1477.81,625.789L1477.81,2206.24L1349.5,2206.24L1342.53,490.101L2748.23,490.101Z" style="fill:white;fill-rule:nonzero;"/>
                </g>
                <g transform="matrix(0.687508,0,0,1,3224.79,83.9865)">
                    <path d="M250,2341.93L250,2206.24L1520.42,2206.24L1520.42,625.789L1655.71,625.789L1655.71,2341.93L250,2341.93Z" style="fill:white;fill-rule:nonzero;"/>
                </g>
            </g>
            <g transform="matrix(1033.6,0,0,1506.78,3499.16,2027.89)">
                <path d="M0.134,-0.187L0.134,-0.263L0.528,-0.263L0.528,-0.187L0.134,-0.187ZM0,0.012L0.078,0.012L0.078,-0.636L0.528,-0.636L0.528,-0.713L0,-0.713L0,0.012Z" style="fill:white;fill-rule:nonzero;"/>
            </g>
        </g>
    </g>
</svg>
